<svg xmlns="http://www.w3.org/2000/svg" viewBox="0 0 2000 2000" width="2000" height="2000">
  <path d="M1999.33 1000c0 552.16-447.84 1000-1000 1000C447.17 2000-.67 1552.16-.67 1000S447.17 0 999.33 0c552.16 0 1000 447.84 1000 1000" fill="#00b1ea"/>
  <path d="M961.33 1132.67c-73.58 0-133.33 59.75-133.33 133.33 0 73.58 59.75 133.33 133.33 133.33 73.58 0 133.33-59.75 133.33-133.33 0-73.58-59.75-133.33-133.33-133.33zm0 213.33c-44.15 0-80-35.85-80-80s35.85-80 80-80 80 35.85 80 80-35.85 80-80 80zm-320-213.33c-73.58 0-133.33 59.75-133.33 133.33 0 73.58 59.75 133.33 133.33 133.33 73.58 0 133.33-59.75 133.33-133.33 0-73.58-59.75-133.33-133.33-133.33zm0 213.33c-44.15 0-80-35.85-80-80s35.85-80 80-80 80 35.85 80 80-35.85 80-80 80zm640-213.33c-73.58 0-133.33 59.75-133.33 133.33 0 73.58 59.75 133.33 133.33 133.33 73.58 0 133.33-59.75 133.33-133.33 0-73.58-59.75-133.33-133.33-133.33zm0 213.33c-44.15 0-80-35.85-80-80s35.85-80 80-80 80 35.85 80 80-35.85 80-80 80zm-320-640c-73.58 0-133.33 59.75-133.33 133.33 0 73.58 59.75 133.33 133.33 133.33 73.58 0 133.33-59.75 133.33-133.33 0-73.58-59.75-133.33-133.33-133.33zm0 213.33c-44.15 0-80-35.85-80-80s35.85-80 80-80 80 35.85 80 80-35.85 80-80 80zm-320-213.33c-73.58 0-133.33 59.75-133.33 133.33 0 73.58 59.75 133.33 133.33 133.33 73.58 0 133.33-59.75 133.33-133.33 0-73.58-59.75-133.33-133.33-133.33zm0 213.33c-44.15 0-80-35.85-80-80s35.85-80 80-80 80 35.85 80 80-35.85 80-80 80zm640-213.33c-73.58 0-133.33 59.75-133.33 133.33 0 73.58 59.75 133.33 133.33 133.33 73.58 0 133.33-59.75 133.33-133.33 0-73.58-59.75-133.33-133.33-133.33zm0 213.33c-44.15 0-80-35.85-80-80s35.85-80 80-80 80 35.85 80 80-35.85 80-80 80z" fill="#fff"/>
</svg>