<svg xmlns="http://www.w3.org/2000/svg" viewBox="0 0 512 512" width="512" height="512">
  <rect width="512" height="512" rx="50" fill="#ffffff"/>
  <g transform="translate(80, 120) scale(0.7)">
    <path d="M377.74,28.485c-32.818-37.29-92.04-28.9-151.54-28.9H107.77C98.1-.415,89.144,7.686,87.063,17.1L-.012,334.188c-1.089,5.647.693,11.448,5.888,13.529h0L6.028,347.9l-.153.693c-1.243,6.5,3.774,12.3,10.428,12.3H96.614c9.675,0,17.861-7.02,19.4-16.542l7.02-30.071c1.55-9.522,9.675-16.542,19.4-16.542h13.375c79.128,0,140.958-32.2,159.126-125.186,6.8-34.9,4.4-64.051-14.6-84.467" fill="#003087"/>
    <path d="M377.74,28.485c-32.818-37.29-92.04-28.9-151.54-28.9H107.77C98.1-.415,89.144,7.686,87.063,17.1L-.012,334.188c-1.089,5.647.693,11.448,5.888,13.529h0L6.028,347.9l-.153.693c-1.243,6.5,3.774,12.3,10.428,12.3H96.614c9.675,0,17.861-7.02,19.4-16.542l7.02-30.071c1.55-9.522,9.675-16.542,19.4-16.542h13.375c79.128,0,140.958-32.2,159.126-125.186,6.8-34.9,4.4-64.051-14.6-84.467" fill="#003087"/>
    <path d="M158.7,181.8c1.243-7.866,6.343-10.274,13.068-10.274h83.055c9.829,0,19.1.693,27.478,2.079a71.113,71.113,0,0,1,11.6,2.079c2.789.693,5.425,1.55,7.866,2.4a57.609,57.609,0,0,1,7.173,3.168c9.522-54.376-5.888-91.5-45.8-111.2-34.9-17.235-78.435-17.235-115.725-17.235H30.071C20.4-47.185,11.448-39.084,9.368-29.644L-77.707,287.448c-1.243,6.5,3.774,12.3,10.428,12.3H13.142l33.5-118.013Z" fill="#0070e0"/>
  </g>
</svg>